<svg id="Capa_1" data-name="Capa 1" xmlns="http://www.w3.org/2000/svg" viewBox="0 0 365.2 189.25"><defs><style>.cls-1,.cls-2{fill:#fff;}.cls-2{font-size:21.26px;font-family:CenturyGothic-Bold, Century Gothic;font-weight:700;}</style></defs><title>Identificadorbeneficiar</title><path class="cls-1" d="M131.06,74.73A7.7,7.7,0,1,0,139,67.25a7.7,7.7,0,0,0-7.91,7.48" transform="translate(-67.33 -67.24)"/><path class="cls-1" d="M177.36,107.05a4.28,4.28,0,1,0,4.19-4.35,4.26,4.26,0,0,0-4.19,4.35" transform="translate(-67.33 -67.24)"/><path class="cls-1" d="M147.24,128.06c1.6-13.33,2.83-25.71,3.26-26.67,2.95-6.7,23.42,10.81,23.42,10.81s-14-26.27-35.43-27.47-37.62,28.52-37.62,28.52C116.69,98.6,121.16,104,121.16,104c6.74,6,3.8,19.22-.86,31.51A75.7,75.7,0,0,1,147.24,128.06Z" transform="translate(-67.33 -67.24)"/><path class="cls-1" d="M187.68,126.68c-.13-1.19-.25-2.22-.35-3,0,0-.74-7.63,12.18,3.1,0,0-8.8-12.19-16.52-13.27-5.57-.79-10.35-1.85-21,8.07,0,0,10.23-5,13.19-2.84,1,.66.89,3.76.58,8.15C175.81,126.89,184.41,126.28,187.68,126.68Z" transform="translate(-67.33 -67.24)"/><path class="cls-1" d="M230.72,133.86c.06-11-.62-20.07,1.37-21.28,3.9-2.38,16.29,4.72,16.29,4.72-12.42-13.36-18.47-13.12-25.51-12.63-9.78.71-25.18,18.89-25.18,18.89,18.26-13.16,18.78-5.81,18.78-5.81-.45,2.34-1.15,6.33-1.88,11C214.59,128.71,220.75,129.54,230.72,133.86Z" transform="translate(-67.33 -67.24)"/><path class="cls-1" d="M85,186H67.9V126H80.56c4.78,0,8.39.57,11,1.73A14.32,14.32,0,0,1,98,133.18a15,15,0,0,1,2.33,8.16,14.63,14.63,0,0,1-2,7.64,14.19,14.19,0,0,1-3.65,4.09,19.29,19.29,0,0,1,4.78,2.85,15.49,15.49,0,0,1,4.09,5.41,16.13,16.13,0,0,1,1.47,6.86,16.85,16.85,0,0,1-5.47,12.66C95.86,184.26,91,186,85,186Zm-8.77-8.32H82c4,0,6.92-.38,8.69-1.12a9.06,9.06,0,0,0,4.11-3.35,8.53,8.53,0,0,0,1.54-4.89,8.4,8.4,0,0,0-2.16-5.77A11.59,11.59,0,0,0,88,159.06a50.61,50.61,0,0,0-9.88-.65H76.23Zm0-27.74h1.91c3.8,0,6.59-.35,8.29-1a8.08,8.08,0,0,0,3.84-3,7.82,7.82,0,0,0,1.4-4.55,6.17,6.17,0,0,0-2.25-5.12c-1.57-1.28-4.25-1.94-7.91-1.94H76.23Z" transform="translate(-67.33 -67.24)"/><path class="cls-1" d="M130.56,187c-7.3-.08-13.07-2.6-17.16-7.48a24.56,24.56,0,0,1-.56-31.48,21.61,21.61,0,0,1,18-8.33,22.28,22.28,0,0,1,18.28,9c3.19,4.13,4.8,9.3,4.78,15.38v1.36L115.79,165a15.4,15.4,0,0,0,4.14,9.87,13.67,13.67,0,0,0,10.26,4.42,16.51,16.51,0,0,0,5.84-1,15,15,0,0,0,4.82-2.68,24,24,0,0,0,4.43-5.63l.68-1.09,6.88,3.71-.63,1.19a26.94,26.94,0,0,1-5.6,7.48,22.22,22.22,0,0,1-7.16,4.33A24.55,24.55,0,0,1,130.56,187Zm-13.71-29.45,27.94.33a15,15,0,0,0-2.38-4.8,13.82,13.82,0,0,0-5-3.88,15.69,15.69,0,0,0-6.63-1.55,14.12,14.12,0,0,0-9.86,3.55A15.55,15.55,0,0,0,116.85,157.59Z" transform="translate(-67.33 -67.24)"/><path class="cls-1" d="M196.64,186h-8.17V164.37a50,50,0,0,0-.56-9.46,9.62,9.62,0,0,0-3.16-5.58,9.72,9.72,0,0,0-6.18-1.84,12.1,12.1,0,0,0-8,2.95,14.14,14.14,0,0,0-4.72,7.41c-.48,2-.74,5.75-.74,11.2V186H157v-45.1h8.16v5.27a22.3,22.3,0,0,1,5.25-4,19.19,19.19,0,0,1,9.3-2.33,16.46,16.46,0,0,1,9.17,2.63,15.76,15.76,0,0,1,5.94,7.12c1.26,2.92,1.87,7.27,1.87,13.28Z" transform="translate(-67.33 -67.24)"/><path class="cls-1" d="M224.05,187c-7.29,0-13.09-2.45-17.25-7.27a24.38,24.38,0,0,1-6.18-16.26,24.07,24.07,0,0,1,5.25-15.21,21.61,21.61,0,0,1,17.87-8.55,22.3,22.3,0,0,1,18.38,8.74c3.25,4.09,4.92,9.25,5,15.32v1.37H209a15.41,15.41,0,0,0,4.26,9.81,13.65,13.65,0,0,0,10.31,4.31,16.91,16.91,0,0,0,5.83-1,15.2,15.2,0,0,0,4.78-2.74,24.11,24.11,0,0,0,4.38-5.69l.65-1.09,6.92,3.62-.62,1.2a26.38,26.38,0,0,1-5.51,7.55,22,22,0,0,1-7.09,4.42A24.87,24.87,0,0,1,224.05,187ZM210,157.75h27.95a15,15,0,0,0-2.45-4.77,13.7,13.7,0,0,0-5-3.82,15.76,15.76,0,0,0-6.65-1.47,14.11,14.11,0,0,0-9.83,3.66A15.69,15.69,0,0,0,210,157.75Z" transform="translate(-67.33 -67.24)"/><path class="cls-1" d="M263.09,186h-8.16V148.27h-5.58v-7.42h5.58v-5.27a18.91,18.91,0,0,1,.95-7.05,8,8,0,0,1,3.4-3.76,10.62,10.62,0,0,1,5.54-1.39,24.54,24.54,0,0,1,6.73,1.15l1,.29v8.41l-1.89-.82c-3-1.28-5.33-1.47-6.55-.73a1.82,1.82,0,0,0-.75.75,19.64,19.64,0,0,0-.2,4v4.37H272v7.42h-8.86Z" transform="translate(-67.33 -67.24)"/><path class="cls-1" d="M286.22,186h-8.16V140.88h8.16Zm-4.09-50.85a5.87,5.87,0,0,1-5.83-5.84,5.84,5.84,0,1,1,11.67,0,5.87,5.87,0,0,1-5.84,5.84Z" transform="translate(-67.33 -67.24)"/><path class="cls-1" d="M314.86,187.08a24.52,24.52,0,0,1-17.63-6.77,22.22,22.22,0,0,1-7-16.53,23.76,23.76,0,0,1,3.28-12.12,23.23,23.23,0,0,1,9-8.74,26.33,26.33,0,0,1,12.77-3.13,27.36,27.36,0,0,1,8.55,1.35,24.1,24.1,0,0,1,7,3.57,19.42,19.42,0,0,1,5,5.64l.69,1.14-6.51,4-.74-1c-3.5-4.65-8.15-6.91-14.22-6.91a16.24,16.24,0,0,0-11.91,4.6,14.78,14.78,0,0,0-4.71,11.12,15.94,15.94,0,0,0,2.17,8,15.13,15.13,0,0,0,5.94,5.83,17.49,17.49,0,0,0,8.55,2.09,17.19,17.19,0,0,0,14.2-6.92l.77-1,6.49,4.27-.75,1.14a21.87,21.87,0,0,1-8.69,7.56A27.51,27.51,0,0,1,314.86,187.08Z" transform="translate(-67.33 -67.24)"/><path class="cls-1" d="M349.55,186h-7.86a.16.16,0,0,1-.15-.16V141a.16.16,0,0,1,.15-.16h7.86a.16.16,0,0,1,.16.16v44.79A.16.16,0,0,1,349.55,186Zm-3.95-50.85a5.87,5.87,0,0,1-5.82-5.84,5.88,5.88,0,0,1,6.73-5.81,5.39,5.39,0,0,1,2.69,1.17,5.8,5.8,0,0,1,2.26,4.64,5.89,5.89,0,0,1-5.86,5.84Z" transform="translate(-67.33 -67.24)"/><path class="cls-1" d="M377.32,187.08A22.11,22.11,0,0,1,361,180.15a23.31,23.31,0,0,1-6.75-16.83,22.9,22.9,0,0,1,6.82-16.62,22.33,22.33,0,0,1,16.43-6.91A20.8,20.8,0,0,1,393,146.28v-5.4h8.1V186H393v-5.21a22.81,22.81,0,0,1-5.73,4.06A22.3,22.3,0,0,1,377.32,187.08Zm.61-39.31a15.08,15.08,0,0,0-13.36,7.83,15.86,15.86,0,0,0-2.1,7.89,16,16,0,0,0,2.12,7.9,15.51,15.51,0,0,0,5.67,5.86,14.85,14.85,0,0,0,7.63,2.09,15.79,15.79,0,0,0,7.82-2.08,14.44,14.44,0,0,0,5.64-5.59,16.2,16.2,0,0,0,2-8,15.4,15.4,0,0,0-4.47-11.35A14.59,14.59,0,0,0,377.93,147.77Z" transform="translate(-67.33 -67.24)"/><path class="cls-1" d="M416.14,186h-8.28V140.88h8.28v3.66a16.58,16.58,0,0,1,3.16-2.71,11.73,11.73,0,0,1,6.51-2,11.43,11.43,0,0,1,5.49,1.61l1.23.7-4.2,6.8-1.07-.46a6.16,6.16,0,0,0-2.35-.64,6.52,6.52,0,0,0-4.36,1.91,12.92,12.92,0,0,0-3.45,6.3c-.65,2.28-1,7.09-1,14.28Z" transform="translate(-67.33 -67.24)"/><path class="cls-1" d="M78.39,216.19H68.5V199.83h10v2.83h-7.1V206h7v2.82h-7v4.54h7Z" transform="translate(-67.33 -67.24)"/><path class="cls-1" d="M98.63,216.19H97.31L88.39,206v10.22H85.48V199.83h1.31l9,10.36V199.83h2.84Z" transform="translate(-67.33 -67.24)"/><path class="cls-1" d="M111.45,216.19h-2.88V202.66h-3.35v-2.83h9.58v2.83h-3.35Z" transform="translate(-67.33 -67.24)"/><path class="cls-1" d="M124,216.19h-2.86V199.83H124Z" transform="translate(-67.33 -67.24)"/><path class="cls-1" d="M137.35,216.19H131.9V199.83h3.79a15.92,15.92,0,0,1,5.11.59,7.23,7.23,0,0,1,3.76,2.91,8.76,8.76,0,0,1,1.33,4.88,8.63,8.63,0,0,1-1.06,4.29,6.8,6.8,0,0,1-2.8,2.8A10.12,10.12,0,0,1,137.35,216.19Zm-2.66-2.77h1.06a15.56,15.56,0,0,0,4.11-.36,4.25,4.25,0,0,0,2.31-1.71,5.53,5.53,0,0,0,.85-3.12,5.78,5.78,0,0,0-.94-3.33,4.53,4.53,0,0,0-2.56-1.84,17,17,0,0,0-4.44-.4h-.39Z" transform="translate(-67.33 -67.24)"/><path class="cls-1" d="M168.1,216.19H165l-2.35-4.93H157l-2.33,4.93h-3.18l7.73-16.36h1.23Zm-9.75-7.74h3l-1.49-3.17Z" transform="translate(-67.33 -67.24)"/><path class="cls-1" d="M179.92,216.19h-5.45V199.83h3.79a15.92,15.92,0,0,1,5.11.59,7.13,7.13,0,0,1,3.75,2.91,8.77,8.77,0,0,1,1.34,4.88,8.53,8.53,0,0,1-1.06,4.29,6.82,6.82,0,0,1-2.81,2.8A10.05,10.05,0,0,1,179.92,216.19Zm-2.66-2.77h1.06a15.56,15.56,0,0,0,4.11-.36,4.19,4.19,0,0,0,2.3-1.71,5.45,5.45,0,0,0,.86-3.12,5.7,5.7,0,0,0-.94-3.33,4.56,4.56,0,0,0-2.56-1.84,17,17,0,0,0-4.44-.4h-.39Z" transform="translate(-67.33 -67.24)"/><path class="cls-1" d="M232.83,216.57a8.54,8.54,0,0,1-6.73-2.85,8.66,8.66,0,0,1-2.07-5.8,8.06,8.06,0,0,1,2.52-6,8.61,8.61,0,0,1,6.25-2.45,9.31,9.31,0,0,1,4.1.9,8.13,8.13,0,0,1,3,2.55l.39.53-2.25,1.72-.41-.54a5.9,5.9,0,0,0-2.1-1.73,6.16,6.16,0,0,0-2.72-.59,6.06,6.06,0,0,0-3,.77,5.52,5.52,0,0,0-2.11,2.07,5.66,5.66,0,0,0-.75,2.93,5.46,5.46,0,0,0,1.67,4.1,5.89,5.89,0,0,0,4.28,1.64,6,6,0,0,0,4.75-2.24l.42-.47,2.24,1.69-.43.54a8.3,8.3,0,0,1-3,2.41A9.55,9.55,0,0,1,232.83,216.57Z" transform="translate(-67.33 -67.24)"/><path class="cls-1" d="M255.44,216.57a8.34,8.34,0,0,1-6.11-2.48,8.19,8.19,0,0,1-2.5-6,8.7,8.7,0,0,1,1.13-4.34,8.45,8.45,0,0,1,3.1-3.15,8.36,8.36,0,0,1,4.25-1.14,8.45,8.45,0,0,1,6.18,2.47,8.57,8.57,0,0,1-6.05,14.65Zm-.06-14.31a5.63,5.63,0,0,0-2.82.78,5.71,5.71,0,0,0-2.08,2.09,5.94,5.94,0,0,0-.74,2.94,5.65,5.65,0,0,0,5.64,5.7,5.85,5.85,0,0,0,2.9-.77,5.5,5.5,0,0,0,2.06-2.06,5.86,5.86,0,0,0,.75-2.93,5.67,5.67,0,0,0-.75-2.9,5.51,5.51,0,0,0-2.09-2.06A5.67,5.67,0,0,0,255.38,202.26Z" transform="translate(-67.33 -67.24)"/><path class="cls-1" d="M279.38,216.57a8.38,8.38,0,0,1-6.12-2.48,8.22,8.22,0,0,1-2.49-6,8.61,8.61,0,0,1,1.14-4.34,8.23,8.23,0,0,1,3.1-3.15,8.33,8.33,0,0,1,4.25-1.14,8.47,8.47,0,0,1,6.18,2.47,8.57,8.57,0,0,1-6.06,14.65Zm-.05-14.31a5.58,5.58,0,0,0-2.82.78,5.66,5.66,0,0,0-2.09,2.09,6,6,0,0,0-.75,2.94,5.67,5.67,0,0,0,5.66,5.7,5.81,5.81,0,0,0,2.89-.77,5.46,5.46,0,0,0,2.07-2.06A6,6,0,0,0,285,208a5.77,5.77,0,0,0-.74-2.9,5.59,5.59,0,0,0-2.09-2.06A5.72,5.72,0,0,0,279.33,202.26Z" transform="translate(-67.33 -67.24)"/><path class="cls-1" d="M298.22,216.19h-2.85V199.83H299a17,17,0,0,1,3.63.25,4.56,4.56,0,0,1,2.47,1.52,4.46,4.46,0,0,1,1,2.91,4.33,4.33,0,0,1-3.51,4.44,18.87,18.87,0,0,1-4,.26h-.39Zm0-9.79,1.87,0a5.93,5.93,0,0,0,2-.23,1.7,1.7,0,0,0,.81-.65,1.88,1.88,0,0,0,0-2,1.51,1.51,0,0,0-.75-.62,5.77,5.77,0,0,0-1.95-.22h-2Z" transform="translate(-67.33 -67.24)"/><path class="cls-1" d="M323.43,216.19h-9.89V199.83h9.95v2.83h-7.1V206h7v2.82h-7v4.54h7Z" transform="translate(-67.33 -67.24)"/><path class="cls-1" d="M342.26,216.19h-3.58l-5.24-6.75v6.75h-2.86V199.83h3.68a18.17,18.17,0,0,1,3.54.23,4.5,4.5,0,0,1,2.54,1.53,4.41,4.41,0,0,1,1,2.92,4.58,4.58,0,0,1-.68,2.5,4.11,4.11,0,0,1-1.95,1.67,6.44,6.44,0,0,1-1.89.48Zm-8.82-9.78h1.92a6.06,6.06,0,0,0,2-.23,1.65,1.65,0,0,0,.79-.66,1.78,1.78,0,0,0,.3-1,1.68,1.68,0,0,0-.3-1,1.51,1.51,0,0,0-.75-.62,5.71,5.71,0,0,0-2-.22h-2Z" transform="translate(-67.33 -67.24)"/><path class="cls-1" d="M363.85,216.19h-3.12l-2.36-4.93h-5.61l-2.33,4.93h-3.18L355,199.83h1.22Zm-9.76-7.74h3l-1.51-3.17Z" transform="translate(-67.33 -67.24)"/><path class="cls-1" d="M375,216.19h-2.89V202.66h-3.35v-2.83h9.58v2.83H375Z" transform="translate(-67.33 -67.24)"/><path class="cls-1" d="M387.54,216.19h-2.86V199.83h2.86Z" transform="translate(-67.33 -67.24)"/><path class="cls-1" d="M402.14,216.19h-1.22l-7-16.36H397l4.54,10.56,4.6-10.56h3.11Z" transform="translate(-67.33 -67.24)"/><path class="cls-1" d="M430.72,216.19h-3.11l-2.35-4.93h-5.62l-2.33,4.93h-3.18l7.74-16.36h1.22ZM421,208.45h3l-1.48-3.17Z" transform="translate(-67.33 -67.24)"/><rect class="cls-1" y="157.26" width="363.31" height="2.71"/><path class="cls-1" d="M220,97.52a5.28,5.28,0,1,0,5.18-5.36A5.27,5.27,0,0,0,220,97.52" transform="translate(-67.33 -67.24)"/><path class="cls-1" d="M-.31.17" transform="translate(-67.33 -67.24)"/><path class="cls-1" d="M500.31.17" transform="translate(-67.33 -67.24)"/><path class="cls-1" d="M500.31,294.36" transform="translate(-67.33 -67.24)"/><path class="cls-1" d="M-.31,294.36" transform="translate(-67.33 -67.24)"/><text class="cls-2" transform="translate(0 184.57)">¡La opción financiera más humana!</text></svg>